Big Stan (2007)

Vad ska en patetisk ynkedom till karl ta sig till som står i begrepp att avtjäna 

sitt fängelsestraff tillsammans med våldtäktsmän, barnmisshandlare och 

seriemördare? Jo, han söker upp första bästa skorpionätande kung fu-mästare och 

lär sig lite seriöst självförsvar i värsta Kill Bill-stil!

Fakta om filmen
Originaltitel
Big Stan

Land, år, längd
USA år 2007

Regissör
Rob Schneider

Manus
Josh Lieb

Skådespelare
Rob Schneider - Big Stan
David Carradine - The Master
Jennifer Morrison - Mindy
Scott Wilson - Warden Gasque
Richard Kind - Mal
Sally Kirkland - Madame Foreman
M. Emmet Walsh - Lew Popper
Henry Gibson - Shorts
Kevin Gage - Bullard
Bob Sapp - Big Raymond
Brandon T. Jackson - D'Shaun
Dan Haggerty - Tubby
Richard Riehle - Judge Perry
Marcia Wallace - Alma
Tsuyoshi Abe - Dang
Salvator Xuereb - Patterson
Randy Couture - Carnahan
Jim Cody Williams - Tyler
Don Frye - Nation Member
Diego Corrales - Julio
Brandon Molale - Piken

Shannon Makhanian - CASTING

Victor Hammer - FOTO

Greg Babor - Klippning

Richard Halsey - Klippning

Bonnie Stauch - Kostym

Gary Coppola - Ljud




 
Format                           : AVI
Format/Info                      : Audio Video Interleave
File size                        : 699 MiB
Duration                         : 49mn 38s
Overall bit rate                 : 1 967 Kbps
Writing application              : FairUse Wizard - http://fairusewizard.com
Writing library                  : The best and REALLY easy backup tool

Video
ID                               : 0
Format                           : MPEG-4 Visual
Format profile                   : Advanced Simple@L5
Format settings, BVOP            : Yes
Format settings, QPel            : No
Format settings, GMC             : No warppoints
Format settings, Matrix          : Default (MPEG)
Muxing mode                      : Packed bitstream
Codec ID                         : XVID
Codec ID/Hint                    : XviD
Duration                         : 49mn 38s
Bit rate                         : 1 510 Kbps
Width                            : 704 pixels
Height                           : 368 pixels
Display aspect ratio             : 1.913
Frame rate                       : 25.000 fps
Color space                      : YUV
Chroma subsampling               : 4:2:0
Bit depth                        : 8 bits
Scan type                        : Progressive
Bits/(Pixel*Frame)               : 0.233
Stream size                      : 536 MiB (77%)
Writing library                  : XviD 1.2.0.dev47 (UTC 2006-11-01)

Audio
ID                               : 1
Format                           : AC-3
Format/Info                      : Audio Coding 3
Mode extension                   : CM (complete main)
Codec ID                         : 2000
Duration                         : 49mn 38s
Bit rate mode                    : Constant
Bit rate                         : 448 Kbps
Channel(s)                       : 6 channels
Channel positions                : Front: L C R, Side: L R, LFE
Sampling rate                    : 48.0 KHz
Stream size                      : 159 MiB (23%)
Alignment                        : Split accross interleaves
Interleave, duration             : 40 ms (1.00 video frame)
Interleave, preload duration     : 500 ms

